# Blender 5.2.0 LTS
# www.blender.org
mtllib Light.mtl
o Cube.001
v -1.228075 2.345558 -1.228075
v -1.228075 2.345558 1.228075
v 1.228075 2.345558 -1.228075
v 1.228075 2.345558 1.228075
v -0.183606 4.822346 -0.183606
v -0.183606 4.822346 0.183606
v 0.183606 4.822346 -0.183606
v 0.183606 4.822346 0.183606
v -0.183606 0.341251 0.183606
v -1.000000 -0.100000 1.000000
v -0.183606 0.341251 -0.183606
v -1.000000 -0.100000 -1.000000
v 0.183606 0.341251 0.183606
v 1.000000 -0.100000 1.000000
v 0.183606 0.341251 -0.183606
v 1.000000 -0.100000 -1.000000
v -1.000000 0.100000 -1.000000
v -1.000000 0.100000 1.000000
v 1.000000 0.100000 -1.000000
v 1.000000 0.100000 1.000000
v -0.845994 0.100000 -0.845994
v -0.845994 0.100000 0.845994
v 0.845994 0.100000 -0.845994
v 0.845994 0.100000 0.845994
v -0.365421 0.341251 -0.365421
v -0.365421 0.341251 0.365421
v 0.365421 0.341251 -0.365421
v 0.365421 0.341251 0.365421
v -0.183606 2.869497 -0.183606
v -0.183606 2.869497 0.183606
v 0.183606 2.869497 -0.183606
v 0.183606 2.869497 0.183606
vn 0.9214 0.3886 -0.0000
vn -0.0000 1.0000 -0.0000
vn -0.9214 0.3886 -0.0000
vn -0.0000 0.3886 0.9214
vn -0.0000 0.3886 -0.9214
vn -1.0000 -0.0000 -0.0000
vn -0.0000 -0.0000 -1.0000
vn 1.0000 -0.0000 -0.0000
vn -0.0000 -0.0000 1.0000
vn -0.0000 -1.0000 -0.0000
vn -0.4486 0.8937 -0.0000
vn -0.0000 0.8937 -0.4486
vn 0.4486 0.8937 -0.0000
vn -0.0000 0.8937 0.4486
vt 0.013327 0.345309
vt 0.147057 0.013327
vt 0.194074 0.013327
vt 0.327804 0.345309
vt 0.268495 0.777617
vt 0.221479 0.777617
vt 0.221479 0.730600
vt 0.268495 0.730600
vt 0.668935 0.013327
vt 0.535205 0.345309
vt 0.488188 0.345309
vt 0.354458 0.013327
vt 0.327804 0.371964
vt 0.194074 0.703946
vt 0.147057 0.703946
vt 0.013327 0.371964
vt 0.354458 0.703946
vt 0.488188 0.371964
vt 0.535204 0.371964
vt 0.668935 0.703946
vt 0.142787 0.730600
vt 0.142787 0.986673
vt 0.117403 0.986673
vt 0.117403 0.730600
vt 0.013327 0.986673
vt 0.013327 0.730600
vt 0.038711 0.730600
vt 0.038711 0.986673
vt 0.169441 0.986673
vt 0.169441 0.730600
vt 0.194824 0.730600
vt 0.194824 0.986673
vt 0.090749 0.730600
vt 0.090749 0.986673
vt 0.065365 0.986673
vt 0.065365 0.730600
vt 0.842930 0.899663
vt 0.842930 0.578781
vt 0.889947 0.578781
vt 0.889947 0.899663
vt 0.951662 0.269400
vt 0.695589 0.269400
vt 0.695589 0.013327
vt 0.951662 0.013327
vt 0.931943 0.532409
vt 0.951662 0.552127
vt 0.695589 0.552127
vt 0.715307 0.532409
vt 0.931943 0.315772
vt 0.951662 0.296054
vt 0.715307 0.315772
vt 0.695589 0.296054
vt 0.870412 0.470878
vt 0.776838 0.470878
vt 0.870412 0.377303
vt 0.776838 0.377303
vt 0.847133 0.447599
vt 0.800117 0.447599
vt 0.847133 0.400582
vt 0.800117 0.400582
vt 0.742605 0.578781
vt 0.742605 0.899663
vt 0.695589 0.899663
vt 0.695589 0.578781
vt 0.769259 0.899663
vt 0.769259 0.578781
vt 0.816276 0.578781
vt 0.816276 0.899663
vt 0.963617 0.578781
vt 0.963617 0.899663
vt 0.916601 0.899663
vt 0.916601 0.578781
s 1
f 3/1/1 7/2/1 8/3/1 4/4/1
f 5/5/2 6/6/2 8/7/2 7/8/2
f 2/9/3 6/10/3 5/11/3 1/12/3
f 4/13/4 8/14/4 6/15/4 2/16/4
f 1/17/5 5/18/5 7/19/5 3/20/5
f 18/21/6 17/22/6 12/23/6 10/24/6
f 17/25/7 19/26/7 16/27/7 12/28/7
f 19/29/8 20/30/8 14/31/8 16/32/8
f 20/33/9 18/34/9 10/35/9 14/36/9
f 11/37/7 29/38/7 31/39/7 15/40/7
f 16/41/10 14/42/10 10/43/10 12/44/10
f 21/45/2 17/46/2 18/47/2 22/48/2
f 23/49/2 19/50/2 17/46/2 21/45/2
f 24/51/2 20/52/2 19/50/2 23/49/2
f 22/48/2 18/47/2 20/52/2 24/51/2
f 25/53/11 21/45/11 22/48/11 26/54/11
f 27/55/12 23/49/12 21/45/12 25/53/12
f 28/56/13 24/51/13 23/49/13 27/55/13
f 26/54/14 22/48/14 24/51/14 28/56/14
f 11/57/2 25/53/2 26/54/2 9/58/2
f 15/59/2 27/55/2 25/53/2 11/57/2
f 13/60/2 28/56/2 27/55/2 15/59/2
f 9/58/2 26/54/2 28/56/2 13/60/2
f 15/61/8 31/62/8 32/63/8 13/64/8
f 9/65/6 30/66/6 29/67/6 11/68/6
f 13/69/9 32/70/9 30/71/9 9/72/9
